<svg width="800" height="600" xmlns="http://www.w3.org/2000/svg">

 <g>
  <title>Layer 1</title>
  <g stroke="null">
   <path fill="#ff6430" stroke="null" d="m318.19999,23l-234.89999,0c-43.4565,0 -78.3,30.73003 -78.3,69.05625l0,414.33749a78.3,69.05625 0 0 0 78.3,69.05625l626.39998,0a78.3,69.05625 0 0 0 78.3,-69.05625l0,-345.28124c0,-38.32622 -35.235,-69.05625 -78.3,-69.05625l-313.19999,0l-78.3,-69.05625z"/>
  </g>
  <g fill-opacity="0.91" stroke="null">
   <path stroke="null" fill="#ffffff" d="m767.28375,315.80777l-126.63785,0a11.51632,11.51632 0 0 1 -11.51186,-11.51037l0,-131.98078c0,-9.77354 -7.9251,-17.70162 -17.69418,-17.70162l-45.20654,0c-9.77503,0 -17.69566,7.92807 -17.69566,17.70162l0,131.18157c0,6.80591 -5.50218,12.33785 -12.30809,12.36762l-41.50072,0.19794c-6.86395,0.03721 -12.44054,-5.53194 -12.42715,-12.38994l0.25747,-131.32743c0.02232,-9.78843 -7.90575,-17.73138 -17.69418,-17.73138l-45.16934,0c-9.77652,0 -17.69566,7.92807 -17.69566,17.70162l0,369.56405c0,8.68263 7.03362,15.71625 15.70881,15.71625l349.57494,0c8.68263,0 15.71625,-7.03362 15.71625,-15.71625l0,-210.35665c0,-8.68263 -7.03362,-15.71625 -15.71625,-15.71625zm-59.3854,138.75693c0,11.37791 -9.22437,20.60377 -20.60228,20.60377l-35.72619,0c-11.3794,0 -20.60377,-9.22586 -20.60377,-20.60377l0,-35.72619c0,-11.3794 9.22437,-20.60377 20.60377,-20.60377l35.72619,0c11.37791,0 20.60228,9.22437 20.60228,20.60377l0,35.72619z"/>
  </g>
 </g>
</svg>