<svg width="800" height="600" xmlns="http://www.w3.org/2000/svg">

 <g>
  <title>Layer 1</title>
  <g stroke="null">
   <path fill="#ff6430" stroke="null" d="m585.45871,574.82468l-513.58563,0c-38.00534,0 -68.47808,-30.81514 -68.47808,-68.47808l0,-410.86851c0,-38.00534 30.47275,-68.47808 68.47808,-68.47808l205.43425,0l68.47808,68.47808l239.6733,0a68.47808,68.47808 0 0 1 68.47808,68.47808l0,0l-582.06372,0l0,342.39042l73.27155,-273.91234l584.46045,0l-78.06502,291.03186c-7.87498,29.78797 -34.58143,51.35856 -66.08135,51.35856z"/>
  </g>
  <g fill-opacity="0.91" stroke="null">
   <path stroke="null" fill="#ffffff" d="m767.28375,315.80777l-126.63785,0a11.51632,11.51632 0 0 1 -11.51186,-11.51037l0,-131.98078c0,-9.77354 -7.9251,-17.70162 -17.69418,-17.70162l-45.20654,0c-9.77503,0 -17.69566,7.92807 -17.69566,17.70162l0,131.18157c0,6.80591 -5.50218,12.33785 -12.30809,12.36762l-41.50072,0.19794c-6.86395,0.03721 -12.44054,-5.53194 -12.42715,-12.38994l0.25747,-131.32743c0.02232,-9.78843 -7.90575,-17.73138 -17.69418,-17.73138l-45.16934,0c-9.77652,0 -17.69566,7.92807 -17.69566,17.70162l0,369.56405c0,8.68263 7.03362,15.71625 15.70881,15.71625l349.57494,0c8.68263,0 15.71625,-7.03362 15.71625,-15.71625l0,-210.35665c0,-8.68263 -7.03362,-15.71625 -15.71625,-15.71625zm-59.3854,138.75693c0,11.37791 -9.22437,20.60377 -20.60228,20.60377l-35.72619,0c-11.3794,0 -20.60377,-9.22586 -20.60377,-20.60377l0,-35.72619c0,-11.3794 9.22437,-20.60377 20.60377,-20.60377l35.72619,0c11.37791,0 20.60228,9.22437 20.60228,20.60377l0,35.72619z"/>
  </g>
 </g>
</svg>